#!OML:ASF E:\inclinewalkrobotboard\Project 1\Capture day 1\Session 1\subject1.ASF
:FULLY-SPECIFIED
:DEGREES
283
root 7.35248 21.1564 -0.352704 -172.778 0.946151 176.633
lowerback -1.25533 -1.91347 -9.90817
upperback 3.63876 -2.13228 1.22425
thorax 4.9675 -1.41465 6.73727
lowerneck -8.04029 -1.62791 -2.83434
upperneck 29.2232 -0.487003 4.24179
head 10.71 0.827676 2.13162
rclavicle -2.34069e-014 4.67144e-015
rhumerus -95.5455 -47.0274 2.68512
rradius 12.3911
rwrist 57.6678
rhand -15.1045 -35.7979
rfingers 7.12502
rthumb 11.064 -65.4863
lclavicle -2.34069e-014 4.67144e-015
lhumerus -19.9943 -6.07284 89.6925
lradius 35.073
lwrist -17.4783
lhand -29.0778 -25.682
lfingers 7.12502
lthumb -2.42685 4.28397
rfemur -43.8411 1.39714 13.6551
rtibia 28.0372
rfoot -7.31604 -3.65237
rtoes -31.7634
lfemur -1.05582 -6.82017 -27.341
ltibia 12.8195
lfoot -21.0894 -8.70913
ltoes -32.7089
284
root 7.38655 21.1482 -0.593116 -172.625 0.170013 176.67
lowerback -1.24672 -2.0376 -9.80134
upperback 3.57407 -2.55867 1.39388
thorax 4.96154 -1.72485 6.82178
lowerneck -7.91412 -1.52873 -3.1022
upperneck 29.4633 -0.303107 4.51027
head 10.7691 0.935009 2.30603
rclavicle -4.35338e-014 1.88845e-014
rhumerus -98.5405 -46.5521 6.61502
rradius 12.1738
rwrist 60.6695
rhand -14.6214 -35.6894
rfingers 7.12502
rthumb 11.5299 -65.3523
lclavicle -4.35338e-014 1.88845e-014
lhumerus -20.368 -5.47826 89.8143
lradius 34.4428
lwrist -18.1966
lhand -29.2017 -25.6783
lfingers 7.12502
lthumb -2.54652 4.28622
rfemur -43.3093 0.844777 13.976
rtibia 28.6982
rfoot -6.02707 -3.60664
rtoes -30.147
lfemur -0.713722 -7.44755 -27.3118
ltibia 13.8189
lfoot -21.1772 -8.65949
ltoes -33.8786
285
root 7.41757 21.1526 -0.852487 -172.971 -0.0886648 176.228
lowerback -0.84951 -1.93925 -10.1766
upperback 3.77329 -2.46878 1.33697
thorax 4.94738 -1.71023 6.98909
lowerneck -8.5472 -1.68413 -3.06212
upperneck 29.9515 -0.544705 4.69809
head 11.0943 0.869556 2.36364
rclavicle 3.63279e-014 1.64991e-014
rhumerus -100.537 -46.3505 8.79571
rradius 12.0241
rwrist 61.9957
rhand -14.4212 -35.7577
rfingers 7.12502
rthumb 11.7229 -65.4097
lclavicle 3.63279e-014 1.64991e-014
lhumerus -20.4471 -5.26108 90.0341
lradius 33.3134
lwrist -19.2565
lhand -30.4371 -25.8276
lfingers 7.12502
lthumb -3.73955 4.11931
rfemur -42.3074 0.565391 13.7912
rtibia 29.3985
rfoot -4.65614 -3.12321
rtoes -22.5544
lfemur 0.409543 -8.10653 -28.0643
ltibia 14.5186
lfoot -21.1264 -8.13107
ltoes -35.3908
286
root 7.46298 21.1751 -1.07928 -172.559 -0.144502 177.17
lowerback -0.809188 -1.91977 -9.35342
upperback 3.64805 -2.48112 1.80253
thorax 4.77013 -1.67681 7.02321
lowerneck -8.73553 -1.72825 -3.26696
upperneck 30.1065 -0.587808 4.81186
head 11.1959 0.844673 2.44363
rclavicle 1.58034e-014 -1.5704e-014
rhumerus -101.217 -46.2605 9.77667
rradius 11.8057
rwrist 63.0535
rhand -14.5277 -35.6205
rfingers 7.12502
rthumb 11.6202 -65.2783
lclavicle 1.58034e-014 -1.5704e-014
lhumerus -20.6359 -4.08738 90.2466
lradius 32.0323
lwrist -20.2045
lhand -30.9066 -25.8914
lfingers 7.12502
lthumb -4.19291 4.04708
rfemur -42.4567 1.43247 14.9647
rtibia 30.2797
rfoot -5.13352 -3.8285
rtoes -23.8547
lfemur 0.175389 -8.64777 -26.8213
ltibia 15.7391
lfoot -20.9027 -7.56381
ltoes -37.3029
287
root 7.50171 21.2126 -1.31355 -172.321 -0.0191202 177.644
lowerback -0.770294 -1.87397 -8.92762
upperback 3.59827 -2.44542 2.06655
thorax 4.67755 -1.64225 7.06774
lowerneck -8.36212 -1.68145 -3.28806
upperneck 29.8087 -0.538338 4.81566
head 11.003 0.854804 2.44002
rclavicle -3.926e-015 -1.94809e-014
rhumerus -101.168 -46.3219 9.71858
rradius 11.6387
rwrist 63.9566
rhand -14.8258 -35.4279
rfingers 7.12502
rthumb 11.3328 -65.1017
lclavicle -3.926e-015 -1.94809e-014
lhumerus -21.0958 -2.33469 90.2202
lradius 31.1157
lwrist -20.8024
lhand -29.8188 -25.8242
lfingers 7.12502
lthumb -3.14249 4.13241
rfemur -42.3188 2.26601 15.5826
rtibia 31.0597
rfoot -5.46628 -4.3278
rtoes -23.3494
lfemur 0.136932 -9.11451 -26.2493
ltibia 17.0687
lfoot -20.457 -6.93785
ltoes -39.3941
288
root 7.53322 21.2706 -1.56295 -172.235 0.318832 178.069
lowerback -0.804306 -1.97285 -8.40934
upperback 3.65837 -2.34468 2.21456
thorax 4.73564 -1.47829 6.94159
lowerneck -8.10674 -1.67308 -3.29349
upperneck 29.6227 -0.518854 4.7279
head 10.8796 0.844142 2.40161
rclavicle 2.90226e-014 1.2921e-014
rhumerus -98.6294 -46.9188 6.15347
rradius 11.7787
rwrist 62.2011
rhand -14.1715 -35.6156
rfingers 7.12502
rthumb 11.9637 -65.2537
lclavicle 2.90226e-014 1.2921e-014
lhumerus -21.7287 -0.773571 90.011
lradius 30.181
lwrist -21.1489
lhand -29.1774 -25.5271
lfingers 7.12502
lthumb -2.52308 4.43771
rfemur -41.653 3.12385 16.1885
rtibia 31.4576
rfoot -6.06477 -4.3272
rtoes -19.3148
lfemur 0.258542 -9.41276 -25.822
ltibia 18.525
lfoot -19.7225 -6.30288
ltoes -41.7089
289
root 7.56715 21.3376 -1.81877 -172.02 0.796029 178.611
lowerback -1.12457 -1.83031 -7.71756
upperback 3.70616 -2.15408 2.3293
thorax 4.90225 -1.3681 6.67184
lowerneck -8.20377 -1.58649 -3.1849
upperneck 29.7475 -0.435845 4.87854
head 10.9418 0.918671 2.45304
rclavicle 1.59028e-014 -2.42517e-014
rhumerus -96.7901 -47.5296 3.43582
rradius 11.9342
rwrist 61.0688
rhand -14.003 -35.4861
rfingers 7.12502
rthumb 12.1262 -65.1146
lclavicle 1.59028e-014 -2.42517e-014
lhumerus -22.3299 0.407005 89.6713
lradius 28.7883
lwrist -21.876
lhand -29.308 -25.3585
lfingers 7.12502
lthumb -2.64916 4.60477
rfemur -40.8825 4.05391 16.9896
rtibia 31.5229
rfoot -6.90311 -4.2762
rtoes -15.7767
lfemur 0.0504451 -9.50499 -25.2061
ltibia 20.1799
lfoot -18.5377 -5.72388
ltoes -43.5427
290
root 7.60826 21.4113 -2.05522 -171.671 0.773784 178.932
lowerback -1.30232 -1.76061 -7.33203
upperback 3.6283 -2.07252 2.43147
thorax 4.8914 -1.314 6.56209
lowerneck -7.78973 -1.66612 -3.06988
upperneck 29.6454 -0.574457 4.98695
head 10.8261 0.888834 2.45158
rclavicle -4.07509e-015 2.3059e-014
rhumerus -93.425 -48.1257 -1.3851
rradius 12.1359
rwrist 58.2755
rhand -13.8939 -35.4801
rfingers 7.12502
rthumb 12.2314 -65.1024
lclavicle -4.07509e-015 2.3059e-014
lhumerus -23.1215 1.34077 89.3421
lradius 27.5887
lwrist -22.128
lhand -28.9286 -24.7421
lfingers 7.12502
lthumb -2.28272 5.22543
rfemur -40.0715 4.27002 17.6335
rtibia 31.2864
rfoot -7.76115 -4.45788
rtoes -16.1533
lfemur -0.803456 -9.69628 -24.6581
ltibia 22.3939
lfoot -16.7513 -5.38601
ltoes -44.9507
291
root 7.64336 21.4913 -2.29486 -171.625 0.739668 178.873
lowerback -1.05758 -1.91821 -7.40322
upperback 3.68674 -2.29484 2.61391
thorax 4.86569 -1.42911 6.78916
lowerneck -8.02052 -1.55696 -3.33598
upperneck 29.8001 -0.3314 4.83997
head 10.9211 0.949165 2.47788
rclavicle -9.44227e-015 3.77691e-014
rhumerus -87.7469 -48.7019 -8.26808
rradius 12.3329
rwrist 54.8129
rhand -13.9129 -35.3612
rfingers 7.12502
rthumb 12.2131 -64.9846
lclavicle -9.44227e-015 3.77691e-014
lhumerus -23.7544 2.86558 89.1312
lradius 26.2225
lwrist -21.6226
lhand -28.8681 -24.7042
lfingers 7.12502
lthumb -2.22436 5.26399
rfemur -38.6999 4.04707 17.892
rtibia 30.6883
rfoot -8.48767 -4.32013
rtoes -16.6719
lfemur -1.53604 -9.82034 -24.6368
ltibia 25.0012
lfoot -14.7513 -5.04236
ltoes -46.833
292
root 7.67134 21.5702 -2.54977 -171.687 1.15766 178.658
lowerback -1.33652 -1.7947 -7.23705
upperback 3.81728 -2.1015 2.35535
thorax 5.10868 -1.33312 6.42232
lowerneck -7.96058 -1.56464 -3.15716
upperneck 30.0147 -0.326318 4.84806
head 10.9906 0.990452 2.45962
rclavicle -3.3197e-014 1.70955e-014
rhumerus -82.6679 -48.781 -15.2315
rradius 12.7273
rwrist 51.0845
rhand -14.189 -35.096
rfingers 7.12502
rthumb 11.9468 -64.735
lclavicle -3.3197e-014 1.70955e-014
lhumerus -24.4302 3.26316 88.6233
lradius 24.593
lwrist -21.354
lhand -29.253 -24.9283
lfingers 7.12502
lthumb -2.596 5.03561
rfemur -37.1841 3.999 17.9199
rtibia 29.9802
rfoot -9.14566 -3.82658
rtoes -16.0484
lfemur -2.21895 -9.55244 -24.8938
ltibia 27.7106
lfoot -12.3937 -4.56941
ltoes -48.5336
293
root 7.70654 21.654 -2.7809 -171.62 1.10089 178.569
lowerback -1.21525 -1.71406 -7.04477
upperback 3.76179 -2.00764 2.22536
thorax 4.94885 -1.26872 6.1834
lowerneck -7.92052 -1.65772 -3.08874
upperneck 30.2847 -0.434631 4.94535
head 11.0921 0.984303 2.48387
rclavicle 3.37934e-015 1.59028e-015
rhumerus -77.4412 -48.4536 -22.2388
rradius 13.2554
rwrist 46.7825
rhand -14.3479 -34.8812
rfingers 7.12502
rthumb 11.7937 -64.5291
lclavicle 3.37934e-015 1.59028e-015
lhumerus -25.2726 3.80405 88.114
lradius 23.1046
lwrist -22.2219
lhand -29.5732 -24.9809
lfingers 7.12502
lthumb -2.90525 4.9791
rfemur -35.7422 3.71792 18.0584
rtibia 29.1221
rfoot -9.75246 -3.56708
rtoes -15.3452
lfemur -3.56993 -9.1957 -24.7398
ltibia 30.9574
lfoot -9.21918 -4.37602
ltoes -49.6576
